<svg id="visual" viewBox="0 0 1960 800" width="1960" height="800" xmlns="http://www.w3.org/2000/svg" xmlns:xlink="http://www.w3.org/1999/xlink" version="1.1"><path d="M0 282L65.3 315C130.7 348 261.3 414 392 451.5C522.7 489 653.3 498 784 489.3C914.7 480.7 1045.3 454.3 1176 404.8C1306.7 355.3 1437.3 282.7 1568 257.7C1698.7 232.7 1829.3 255.3 1894.7 266.7L1960 278L1960 801L1894.7 801C1829.3 801 1698.7 801 1568 801C1437.3 801 1306.7 801 1176 801C1045.3 801 914.7 801 784 801C653.3 801 522.7 801 392 801C261.3 801 130.7 801 65.3 801L0 801Z" fill="#db915e" stroke-linecap="round" stroke-linejoin="miter"></path></svg>