<svg id="visual" viewBox="0 0 1960 800" width="1960" height="800" xmlns="http://www.w3.org/2000/svg" xmlns:xlink="http://www.w3.org/1999/xlink" version="1.1"><path d="M0 456L65.3 429C130.7 402 261.3 348 392 365.2C522.7 382.3 653.3 470.7 784 459C914.7 447.3 1045.3 335.7 1176 339.7C1306.7 343.7 1437.3 463.3 1568 488.8C1698.7 514.3 1829.3 445.7 1894.7 411.3L1960 377L1960 801L1894.7 801C1829.3 801 1698.7 801 1568 801C1437.3 801 1306.7 801 1176 801C1045.3 801 914.7 801 784 801C653.3 801 522.7 801 392 801C261.3 801 130.7 801 65.3 801L0 801Z" fill="#db915e" stroke-linecap="round" stroke-linejoin="miter"></path></svg>